<?xml version="1.0"?>
<svg version="1.1" xmlns="http://www.w3.org/2000/svg" width="400" height="45" style=""><path fill="#14a800" d="M20.236,38.6q-2.464,1.904-3.612,1.904q-0.616,0-0.91-0.602t-0.294-1.302q0-1.344,1.134-4.032t2.17-2.688q0.532,0,0.91,2.1t0.77,3.052q1.904-2.016,5.516-6.72q4.536-5.964,6.02-6.524q0.504-0.196,1.036-0.196t0.882,0.224t0.35,0.56q0,0.476-0.812,0.56q-0.98,0.532-3.024,2.576q-2.044,1.988-3.276,3.724q-2.996,4.172-6.16,6.804q1.568,2.324,4.928,2.324q0.364,0,1.092-0.056q7.784-0.728,11.032-6.748q1.316-2.408,1.316-4.76t-1.708-4.228q-1.372-1.54-2.982-1.904t-3.29-0.364q-4.312,0-7.952,1.988q-3.836,2.1-3.836,4.704q0,0.7,0.378,1.148t0.518,0.504l-0.168,0q-0.728-0.14-1.288-0.728q-0.616-0.728-0.616-1.54q0-2.8,3.514-4.816t8.246-2.016q2.184,0,4.48,0.504t4.172,2.408q2.156,2.24,2.156,5.068q0,2.1-1.232,4.34q-2.128,3.864-6.356,5.656q-3.388,1.428-7.308,1.428t-5.796-2.352z M16.428,38.488q0,0.868,0.336,1.512q1.204-0.532,2.912-2.212q-0.812-1.344-1.022-2.114t-0.294-2.03q-1.932,2.772-1.932,4.844z M20.432,30.648q0.028,0,0.056-0.028q0,0.056-0.014,0.056t-0.042-0.028z M51.32076,30.928l0.392-0.084q0.308,0,0.588,0.252t0.28,0.392t-1.736,2.702t-1.736,3.57q0,0.084,0.028,0.168q0.14,0.644,0.616,0.644q1.456,0,5.32-4.816q0.084-0.112,0.196-0.112t0.112,0.21t-0.252,0.546q-3.584,4.788-5.46,4.788q-0.252,0-0.476-0.084q-1.232-0.476-1.232-1.848q0-0.476,0.112-0.952l-1.736,1.68q-1.652,1.456-2.394,1.456t-1.414-0.476q-0.756-0.56-0.756-1.484q0-2.044,2.856-4.886t5.236-2.842q0.924,0,1.232,0.644q0.084,0.224,0.14,0.378t0.084,0.154z M42.94876,37.816q0,1.008,0.7,1.008q1.624,0,4.424-3.556l2.968-4.088q-0.224-0.392-0.728-0.392q-1.708,0-4.536,2.646t-2.828,4.382z M68.18152,38.964q-1.904,0-1.904-1.764q0-1.008,0.896-2.758t1.876-2.954q-1.736,0.84-4.004,3.038t-3.164,4.606q-0.14,0.224-0.476,0.224q-0.672,0-0.672-0.756q0.28-1.54,1.26-3.528q0.308-0.644,1.82-3.752q-2.184,1.428-3.71,3.066t-2.828,3.29t-1.47,1.652q-0.364,0-0.63-0.336t-0.266-0.672q0-0.504,1.456-3.696l-1.68,1.764q-0.616,0.616-0.77,0.616t-0.154-0.182t0.224-0.406q1.036-1.036,1.848-2.072t2.688-3.696q0.308-0.42,0.868-0.42t0.56,0.532q0,0.196-1.484,2.73t-1.652,3.178q1.148-1.26,3.444-3.388q3.444-3.192,4.536-3.192q0.336,0,0.616,0.196t0.28,0.434t-1.092,2.114q-1.064,1.932-1.176,2.296q3.108-2.604,3.108-2.632q2.632-2.044,3.78-2.044q0.336,0,0.63,0.21t0.294,0.49q0,0.056-1.82,2.366t-2.044,3.794q-0.056,0.504,0.196,0.756t0.91,0.252t1.932-0.91t2.59-2.45q0.504-0.56,0.686-0.56t0.182,0.14q0,0.196-0.252,0.448q-1.372,1.652-2.954,2.814t-2.478,1.162z M75.13028,39.664q-0.308,0-0.56-0.084q-1.792-0.504-1.792-2.016q0-1.96,2.464-4.536t4.424-2.576q0.644,0,1.05,0.35t0.406,0.854q0,1.568-2.366,2.996t-3.85,1.428q-0.224,0-0.392-0.056q-0.42,0.756-0.42,1.596q0,1.456,1.386,1.456t3.598-1.876q1.708-1.372,2.912-2.912q0.252-0.336,0.434-0.336t0.182,0.168t-0.224,0.476q-1.512,1.988-3.64,3.528t-3.612,1.54z M80.42228,31.6q0-0.336-0.714-0.336t-2.03,1.092q-1.764,1.456-2.744,3.052q0.168,0.056,0.364,0.056q1.064,0,2.842-1.134t2.226-2.478q0.056-0.14,0.056-0.252z M84.15104,38.74q0.924,0,2.38-0.98t2.828-2.66q0.336-0.448,0.532-0.448t0.196,0.168t-1.148,1.456q-2.8,3.08-4.676,3.08q-0.924,0-1.568-0.434t-0.644-1.344t0.476-2.114q0.812-1.904,2.604-4.788q3.276-5.32,4.648-5.32q0.28,0,0.574,0.21t0.322,0.462q-0.644,0.868-2.478,3.332t-2.534,3.542t-1.05,1.61t-0.518,0.826t-0.392,0.77q-0.476,0.952-0.476,1.792t0.924,0.84z"/><path fill="#" d=""/></svg>
