<svg width="123" height="44" viewBox="0 0 123 44" fill="none" xmlns="http://www.w3.org/2000/svg">
<g id="logo-clearlyrated">
<g id="Group">
<g id="Group_2">
<path id="Path" d="M8.74553 28.2806C8.27163 27.8497 7.79774 27.505 7.28076 27.2895C6.80687 27.0741 6.24681 26.9448 5.5575 26.9448C5.04053 26.9448 4.56663 27.0741 4.09274 27.2895C3.66192 27.505 3.27419 27.8497 2.92954 28.2806C2.58489 28.7114 2.3264 29.2716 2.15407 29.9179C1.98175 30.5642 1.89558 31.2967 1.89558 32.1154C1.89558 33.7527 2.24023 35.0453 2.88646 36.0363C3.53268 36.9843 4.43739 37.5013 5.64367 37.5013C6.28989 37.5013 6.84995 37.3721 7.32384 37.1135C7.79774 36.855 8.27164 36.5103 8.70245 36.0794L9.82257 37.2859C9.26251 37.846 8.65937 38.2769 7.97006 38.6216C7.28076 38.9232 6.5053 39.0956 5.5575 39.0956C4.82512 39.0956 4.13582 38.9663 3.4896 38.6647C2.80029 38.4062 2.24023 37.9753 1.72326 37.4151C1.20628 36.855 0.775466 36.1656 0.473896 35.3039C0.172326 34.4421 0 33.4511 0 32.2877C0 31.0813 0.172326 30.0041 0.516977 29.1423C0.861629 28.2806 1.29244 27.5481 1.80942 26.9879C2.3264 26.4278 2.97262 25.9969 3.61884 25.7384C4.30814 25.4798 4.99745 25.3506 5.68675 25.3506C6.59146 25.3506 7.36692 25.4798 8.05623 25.7815C8.74553 26.0831 9.34867 26.4278 9.86565 26.9017L8.74553 28.2806Z" fill="white"/>
<path id="Path_2" d="M11.8053 38.8368V21.5586L13.7012 20.4814V38.8368H11.8053Z" fill="white"/>
<path id="Shape" fill-rule="evenodd" clip-rule="evenodd" d="M26.4755 32.653C26.4863 32.5776 26.497 32.5022 26.497 32.416V31.8128C26.497 30.9079 26.3678 30.0462 26.1524 29.2275C25.8939 28.4088 25.5492 27.7194 25.1184 27.1593C24.6445 26.5992 24.0845 26.1252 23.4383 25.8236C22.7489 25.522 22.0166 25.3496 21.1549 25.3496C20.3795 25.3496 19.6471 25.522 19.0009 25.8236C18.3546 26.1683 17.7515 26.5992 17.2776 27.2024C16.7606 27.8056 16.3729 28.5381 16.1144 29.3568C15.8128 30.1754 15.6836 31.1234 15.6836 32.2006C15.6836 33.4932 15.8559 34.5704 16.2006 35.4752C16.5452 36.3801 16.976 37.0695 17.493 37.6296C18.01 38.1898 18.5701 38.5775 19.2163 38.793C19.8625 39.0084 20.4656 39.1377 21.0688 39.1377C21.5858 39.1377 22.0596 39.1377 22.4474 39.0515L22.4474 39.0515C22.8351 38.9653 23.2229 38.8792 23.6106 38.7499C23.9552 38.6206 24.343 38.4483 24.6876 38.2759C25.0323 38.1036 25.42 37.8881 25.8077 37.6296L24.9461 36.2508C24.343 36.6817 23.7829 36.9833 23.2659 37.1987C22.7489 37.4142 22.1027 37.5434 21.3273 37.5434C20.2502 37.5434 19.3886 37.1126 18.7424 36.2939C18.0962 35.4752 17.7515 34.3119 17.6653 32.89H26.454C26.454 32.8038 26.4647 32.7284 26.4755 32.653ZM21.1973 26.9438C22.3606 26.9438 23.2224 27.3316 23.7825 28.1503C24.3857 28.969 24.6874 30.0462 24.7735 31.3388H17.6641C17.7933 29.8307 18.1811 28.7535 18.7843 28.021C19.3876 27.2885 20.2062 26.9438 21.1973 26.9438Z" fill="white"/>
<path id="Shape_2" fill-rule="evenodd" clip-rule="evenodd" d="M35.9319 37.2418V38.8361H37.8706V29.6153C37.8706 28.1072 37.4398 26.9869 36.6212 26.3406C35.7596 25.6943 34.6395 25.3496 33.2178 25.3496C32.3561 25.3496 31.5807 25.4358 30.8052 25.6512C30.0297 25.8236 29.3835 26.1252 28.7804 26.4268L29.4266 27.978C29.9867 27.6763 30.5467 27.4178 31.1068 27.2455C31.7099 27.0731 32.3561 26.9869 33.0454 26.9869C34.9841 26.9869 35.9319 27.9349 35.9319 29.8738V31.425C35.5442 31.1665 35.0703 30.9941 34.5102 30.8648C33.9502 30.7356 33.347 30.6494 32.6577 30.6494C32.0115 30.6494 31.3653 30.7356 30.7621 30.9079C30.159 31.0803 29.642 31.3388 29.1681 31.6835C28.6942 32.0282 28.3496 32.5022 28.048 33.0192C27.7464 33.5363 27.6172 34.1826 27.6172 34.9151C27.6172 35.7338 27.7034 36.4232 27.9618 36.9402C28.1772 37.4573 28.5219 37.8881 28.9096 38.2328C29.3404 38.5345 29.7713 38.793 30.2882 38.9222C30.8052 39.0515 31.3222 39.1377 31.8392 39.1377C32.787 39.1377 33.6055 38.9653 34.2517 38.5775C34.8979 38.1898 35.458 37.7589 35.9319 37.2418ZM34.5101 32.3727C35.0272 32.5019 35.5012 32.7174 35.932 32.9328H35.8889V35.5612C35.5012 36.1213 34.9841 36.5953 34.3378 36.9831C33.6915 37.3708 32.959 37.5432 32.0972 37.5432C31.3216 37.5432 30.6322 37.3278 30.1583 36.8969C29.6843 36.466 29.4258 35.7335 29.4258 34.7425C29.4258 33.8807 29.6843 33.2344 30.2444 32.8035C30.8046 32.3727 31.5371 32.1572 32.5281 32.1572C33.3468 32.1572 33.9931 32.2434 34.5101 32.3727Z" fill="white"/>
<path id="Path_3" d="M47.1755 27.5913C46.917 27.462 46.6154 27.3327 46.3138 27.2466C46.0122 27.1604 45.6244 27.1173 45.1935 27.1173C44.2887 27.1173 43.5562 27.462 43.0822 28.1945C42.6082 28.8839 42.3497 29.8749 42.3497 31.1245V38.8802H40.4108V25.6092H42.3066V27.2466C42.6082 26.7295 43.0391 26.2555 43.6423 25.8678C44.2456 25.48 44.8919 25.3076 45.5813 25.3076C46.0553 25.3076 46.4861 25.3507 46.7878 25.3938C47.1325 25.4369 47.391 25.5231 47.6495 25.6523L47.1755 27.5913Z" fill="white"/>
<path id="Path_4" d="M49.2847 38.8368V21.5586L51.1805 20.4814V38.8368H49.2847Z" fill="white"/>
<path id="Path_5" d="M57.6414 43.4908H55.7458L57.5553 38.665L52.8594 25.6094H54.8411L58.0722 35.2179L58.5461 36.5967L59.02 35.261L62.2511 25.6525H64.2329L57.6414 43.4908Z" fill="white"/>
<path id="Path_6" d="M73.8402 28.3658C73.5386 28.2365 73.28 28.1072 72.9784 28.021C72.6768 27.9349 72.289 27.8918 71.8581 27.8918C71.0395 27.8918 70.3932 28.1934 69.9623 28.7535C69.4883 29.3137 69.2729 30.1754 69.2729 31.2957V38.8361H66.6445V25.6081H69.2729V26.8577C69.5745 26.4268 70.0054 26.039 70.5224 25.7805C71.0395 25.4789 71.6427 25.3496 72.289 25.3496C72.8061 25.3496 73.28 25.3927 73.6247 25.4789C73.9694 25.565 74.2711 25.6943 74.5296 25.9097L73.8402 28.3658Z" fill="white"/>
<path id="Shape_3" fill-rule="evenodd" clip-rule="evenodd" d="M82.33 37.5443V38.8369H84.8287V29.7885C84.8287 28.3235 84.3548 27.2032 83.4501 26.4707C82.5454 25.7383 81.3391 25.3936 79.8744 25.3936C78.9266 25.3936 78.108 25.4797 77.3756 25.6952C76.6863 25.8675 75.997 26.1691 75.3508 26.5569L76.3417 28.539C76.8587 28.2373 77.3756 28.0219 77.9357 27.8926C78.4957 27.7634 79.0989 27.6772 79.7882 27.6772C80.6067 27.6772 81.2099 27.8496 81.6407 28.2373C82.0715 28.6251 82.2869 29.1853 82.2869 29.9178V30.9088C81.5545 30.5641 80.5637 30.3917 79.3574 30.3917C78.625 30.3917 77.9357 30.4779 77.2895 30.6503C76.6432 30.8226 76.0832 31.0811 75.6093 31.4258C75.1354 31.7705 74.7477 32.2445 74.4892 32.7616C74.2307 33.2786 74.1014 33.9249 74.1014 34.6574C74.1014 35.4761 74.2738 36.1655 74.5323 36.7256C74.8338 37.2858 75.1785 37.7597 75.6093 38.1044C76.0401 38.4491 76.514 38.7077 77.0741 38.88C77.6341 39.0524 78.1942 39.1385 78.7112 39.1385C79.4435 39.1385 80.1328 38.9662 80.736 38.6646C81.3391 38.363 81.8561 38.0183 82.33 37.5443ZM81.0826 32.7621C81.5565 32.8483 81.9874 33.0206 82.3321 33.193V35.0888C82.0305 35.5197 81.5996 35.9075 81.0395 36.2522C80.4793 36.5969 79.833 36.7692 79.1436 36.7692C78.3249 36.7692 77.6786 36.5538 77.2478 36.166C76.8169 35.7351 76.6014 35.2181 76.6014 34.5718C76.6014 33.9685 76.86 33.4946 77.3339 33.1499C77.8079 32.8052 78.4973 32.6328 79.316 32.6328C80.0054 32.6328 80.6086 32.6759 81.0826 32.7621Z" fill="white"/>
<path id="Path_7" d="M93.4033 38.4922C93.1017 38.6646 92.7139 38.8369 92.283 38.9231C91.8521 39.0524 91.3782 39.0955 90.8611 39.0955C89.9563 39.0955 89.2238 38.7938 88.6636 38.2337C88.1466 37.6736 87.888 36.7687 87.888 35.6054V27.9788H85.9922V25.609H87.888V21.8173L90.4302 20.4385V25.5659H93.7049V27.9788H90.4302V35.1314C90.4302 35.7346 90.5164 36.1655 90.7318 36.3809C90.9473 36.5964 91.292 36.7256 91.7659 36.7256C92.1106 36.7256 92.4553 36.6825 92.8 36.5533C93.1447 36.424 93.4464 36.3378 93.6618 36.2086L93.4033 38.4922Z" fill="white"/>
<path id="Shape_4" fill-rule="evenodd" clip-rule="evenodd" d="M105.91 32.9546C105.922 32.8606 105.936 32.7528 105.936 32.6314V32.6314C105.936 32.416 105.936 32.2006 105.893 31.942C105.893 31.0372 105.764 30.2185 105.548 29.3999C105.333 28.5812 104.988 27.8918 104.514 27.2886C104.083 26.6853 103.48 26.2114 102.791 25.8667C102.102 25.522 101.283 25.3496 100.335 25.3496C99.4738 25.3496 98.6983 25.522 97.9659 25.8236C97.2766 26.1252 96.6735 26.5992 96.1565 27.1593C95.6826 27.7194 95.2949 28.4519 94.9933 29.3137C94.6917 30.1754 94.5625 31.1665 94.5625 32.2867C94.5625 33.407 94.7348 34.3549 95.0364 35.2167C95.338 36.0785 95.7688 36.7679 96.2858 37.3711C96.8027 37.9743 97.4059 38.4052 98.0952 38.7068C98.7845 39.0515 99.5169 39.1808 100.292 39.1808C101.283 39.1808 102.145 39.0084 102.877 38.7068C103.61 38.4052 104.256 37.9743 104.859 37.4142L103.308 35.7338C102.877 36.0785 102.446 36.337 101.973 36.5093C101.542 36.6817 101.025 36.7679 100.465 36.7679C100.077 36.7679 99.6892 36.6817 99.3015 36.5524C98.9568 36.4232 98.6122 36.2077 98.3106 35.9061C98.009 35.6045 97.7505 35.2598 97.5351 34.7858C97.3628 34.3119 97.2335 33.7948 97.1474 33.1485H105.893C105.893 33.0921 105.901 33.0274 105.91 32.9546ZM102.534 28.6673C102.792 28.9689 102.965 29.3567 103.094 29.7445C103.223 30.1323 103.309 30.5631 103.353 30.994H97.191C97.3203 29.9168 97.6219 29.0981 98.1389 28.538C98.656 27.9779 99.3454 27.6763 100.207 27.6763C100.767 27.6763 101.198 27.7624 101.586 27.9348C101.974 28.1071 102.275 28.3657 102.534 28.6673Z" fill="white"/>
<path id="Shape_5" fill-rule="evenodd" clip-rule="evenodd" d="M115.631 37.5442V38.8368H118.259V20.4814L115.674 21.8172V26.9446C115.329 26.5137 114.855 26.169 114.252 25.8674C113.649 25.5658 113.046 25.3934 112.357 25.3934C111.667 25.3934 111.021 25.5227 110.375 25.7812C109.729 26.0828 109.169 26.4706 108.695 27.0308C108.178 27.5478 107.833 28.2803 107.532 29.099C107.23 29.9177 107.101 30.9087 107.101 32.029C107.101 33.2785 107.23 34.3557 107.488 35.2605C107.747 36.1654 108.092 36.8979 108.565 37.458C109.039 38.0182 109.599 38.449 110.203 38.7076C110.806 38.9661 111.452 39.0953 112.184 39.0953C112.917 39.0953 113.52 38.9661 114.08 38.6645C114.64 38.3629 115.157 37.9751 115.631 37.5442ZM115.233 29.0419C115.389 29.1898 115.533 29.3262 115.629 29.4863H115.672V34.9585C115.327 35.3893 114.896 35.7771 114.379 36.1218C113.862 36.4665 113.259 36.6389 112.656 36.6389C111.708 36.6389 110.975 36.2511 110.458 35.5186C109.941 34.7861 109.683 33.5797 109.683 31.8992C109.683 30.4773 109.941 29.4432 110.415 28.7538C110.889 28.0644 111.579 27.7197 112.527 27.7197C112.871 27.7197 113.173 27.7628 113.474 27.8921L113.474 27.8921C113.776 28.0213 114.078 28.1506 114.336 28.323L114.336 28.323C114.595 28.4953 114.853 28.6677 115.069 28.8831C115.124 28.9384 115.179 28.9908 115.233 29.0419Z" fill="white"/>
</g>
<path id="Shape_6" fill-rule="evenodd" clip-rule="evenodd" d="M120.456 27.4623V25.868H120.973V25.5664H119.551V25.868H120.111V27.4623H120.456ZM122.699 26.4714V27.4624H123V25.5665H122.655L122.225 26.5575C122.225 26.5791 122.214 26.6006 122.203 26.6222C122.192 26.6437 122.181 26.6653 122.181 26.6868C122.181 26.7083 122.171 26.7299 122.16 26.7514C122.149 26.773 122.138 26.7945 122.138 26.8161C122.138 26.7945 122.128 26.773 122.117 26.7514C122.106 26.7299 122.095 26.7083 122.095 26.6868C122.095 26.6653 122.085 26.6437 122.074 26.6222C122.063 26.6006 122.052 26.5791 122.052 26.5575L121.621 25.5665H121.277V27.4624H121.578V26.4714V26.3852V26.2559C121.578 26.2775 121.589 26.2882 121.6 26.299C121.611 26.3098 121.621 26.3206 121.621 26.3421C121.621 26.3636 121.632 26.3744 121.643 26.3852C121.654 26.396 121.664 26.4067 121.664 26.4283L122.138 27.5055L122.612 26.4283C122.612 26.4067 122.623 26.396 122.634 26.3852C122.645 26.3744 122.655 26.3636 122.655 26.3421C122.655 26.3206 122.666 26.3098 122.677 26.299C122.688 26.2882 122.699 26.2775 122.699 26.2559V26.4714Z" fill="white"/>
</g>
<g id="Group_3">
<path id="Path_8" d="M26.6241 6.88735C26.8395 5.6809 27.3566 4.51753 28.046 3.82812C26.5379 5.03458 25.5038 5.59472 23.8665 7.36132C23.3925 7.87837 23.0047 8.56777 22.7031 9.38644C23.3494 8.99865 23.9958 8.56777 24.6421 8.1369C25.3315 7.70602 25.9778 7.27514 26.6241 6.88735Z" fill="white"/>
<path id="Path_9" d="M19.6862 18.8646C18.6092 19.5971 17.3598 21.4068 17.1444 22.6995C19.8155 20.9759 25.8469 18.563 27.1824 14.125C25.6745 15.0729 23.9944 16.1501 22.5727 17.0119C21.2802 17.8305 20.117 18.563 19.6862 18.8646Z" fill="white"/>
<path id="Path_10" d="M30.1988 5.16324C28.6909 6.28352 20.9363 11.0232 19.4284 12.1865C17.9637 13.3068 16.7143 15.1596 16.6281 16.84C16.542 18.5204 16.6281 23.1308 16.6281 23.1308C16.6281 21.5797 18.136 19.3822 19.4284 18.4773C20.764 17.5294 28.3463 13.0483 30.1988 11.454C32.0513 9.8598 32.8268 8.30864 32.9991 6.80057C33.3437 4.04296 33.0422 2.75033 32.9991 0.509766C32.8268 2.06092 31.7066 3.99987 30.1988 5.16324Z" fill="white"/>
</g>
</g>
</svg>
